<svg width="295" height="708" viewBox="0 0 295 708" fill="none" xmlns="http://www.w3.org/2000/svg">
<circle cx="15.5" cy="30.5" r="2.5" fill="#D9D9D9"/>
<circle cx="255" cy="26" r="2" fill="#D9D9D9"/>
<circle cx="292.5" cy="307.5" r="2.5" fill="#D9D9D9"/>
<circle cx="49.5" cy="311.5" r="1.5" fill="#D9D9D9"/>
<circle cx="224" cy="377" r="1" fill="white"/>
<circle cx="268" cy="498" r="1" fill="#D9D9D9"/>
<circle cx="286" cy="531" r="1" fill="#D9D9D9"/>
<circle cx="3.5" cy="706.5" r="1.5" fill="#D9D9D9"/>
<circle cx="66.5" cy="423.5" r="1.5" fill="#D9D9D9"/>
<circle cx="272" cy="684" r="3" fill="#D9D9D9"/>
<circle cx="19" cy="444" r="2" fill="#D9D9D9"/>
<circle cx="146" cy="246" r="2" fill="#D9D9D9"/>
<circle cx="272.5" cy="47.5" r="1.5" fill="#D9D9D9"/>
<circle cx="6" cy="2" r="2" fill="#D9D9D9"/>
<circle cx="78.5" cy="21.5" r="1.5" fill="#D9D9D9"/>
<circle cx="230" cy="666" r="2" fill="#D9D9D9"/>
<circle cx="243" cy="681" r="2" fill="#D9D9D9"/>
<circle cx="95" cy="564" r="2" fill="#D9D9D9"/>
<circle cx="33" cy="316" r="2" fill="#D9D9D9"/>
<circle cx="251" cy="145" r="2" fill="#D9D9D9"/>
<circle cx="1" cy="204" r="1" fill="#D9D9D9"/>
<circle cx="51" cy="131" r="1" fill="#D9D9D9"/>
</svg>
