<svg width="122" height="122" viewBox="0 0 122 122" fill="none" xmlns="http://www.w3.org/2000/svg">
<circle cx="61" cy="61" r="61" fill="#FFDF3A"/>
<path fill-rule="evenodd" clip-rule="evenodd" d="M61 122C94.6894 122 122 94.6894 122 61C122 27.3106 94.6894 0 61 0C27.3106 0 0 27.3106 0 61C0 94.6894 27.3106 122 61 122ZM58.5 116C89.7041 116 115 90.7041 115 59.5C115 28.2959 89.7041 3 58.5 3C27.2959 3 2 28.2959 2 59.5C2 90.7041 27.2959 116 58.5 116Z" fill="#FF9F2D"/>
<circle cx="85" cy="62" r="6" fill="#FFB82D" fill-opacity="0.34"/>
<circle cx="76" cy="62" r="11" fill="#FFB629" fill-opacity="0.34"/>
<circle cx="85.5" cy="62.5" r="4.5" fill="#FEE400"/>
<circle cx="76" cy="62" r="10" fill="#FEE400"/>
<circle cx="76.5" cy="61.5" r="8.5" fill="white"/>
<circle cx="85.5" cy="62.5" r="3.5" fill="white"/>
<circle cx="15.5" cy="44.5" r="6.5" fill="#FFB629" fill-opacity="0.34"/>
<circle cx="15" cy="44" r="6" fill="#FEE400"/>
<circle cx="14.5" cy="43.5" r="4.5" fill="white"/>
<circle cx="100.5" cy="70.5" r="0.5" fill="#D9D9D9"/>
<circle cx="14.5" cy="71.5" r="0.5" fill="#D9D9D9"/>
<circle cx="13.5" cy="94.5" r="0.5" fill="#D9D9D9"/>
<circle cx="66.5" cy="25.5" r="1.5" fill="#AB8946" fill-opacity="0.79"/>
<circle cx="89.5" cy="36.5" r="1.5" fill="#AB8946" fill-opacity="0.79"/>
<circle cx="35.5" cy="28.5" r="1.5" fill="#AB8946" fill-opacity="0.79"/>
<circle cx="39.5" cy="15.5" r="0.5" fill="#AB8946" fill-opacity="0.79"/>
<circle cx="41" cy="14" r="1" fill="#AB8946" fill-opacity="0.79"/>
<circle cx="44" cy="73" r="1" fill="#AB8946" fill-opacity="0.79"/>
<circle cx="52" cy="83" r="1" fill="#AB8946" fill-opacity="0.79"/>
<circle cx="76" cy="97" r="1" fill="#AB8946" fill-opacity="0.79"/>
<circle cx="77.5" cy="98.5" r="1.5" fill="#AB8946" fill-opacity="0.79"/>
<circle cx="81" cy="95" r="2" fill="#AB8946" fill-opacity="0.79"/>
<circle cx="52.5" cy="77.5" r="1.5" fill="#AB8946" fill-opacity="0.79"/>
<circle cx="70.5" cy="21.5" r="2.5" fill="#AB8946" fill-opacity="0.79"/>
<circle cx="103" cy="44" r="1" fill="#AB8946" fill-opacity="0.79"/>
<circle cx="117" cy="58" r="1" fill="#AB8946" fill-opacity="0.79"/>
<circle cx="103" cy="70" r="1" fill="#AB8946" fill-opacity="0.79"/>
<circle cx="102" cy="77" r="1" fill="#AB8946" fill-opacity="0.79"/>
<circle cx="100.5" cy="70.5" r="0.5" fill="#AB8946" fill-opacity="0.79"/>
<circle cx="118.5" cy="55.5" r="0.5" fill="#AB8946" fill-opacity="0.79"/>
<circle cx="92.5" cy="33.5" r="0.5" fill="#AB8946" fill-opacity="0.79"/>
<circle cx="12.5" cy="69.5" r="0.5" fill="#AB8946" fill-opacity="0.79"/>
<circle cx="14.5" cy="71.5" r="0.5" fill="#AB8946" fill-opacity="0.79"/>
<circle cx="13.5" cy="94.5" r="0.5" fill="#AB8946" fill-opacity="0.79"/>
<circle cx="14" cy="75" r="1" fill="#AB8946" fill-opacity="0.79"/>
<circle cx="15" cy="97" r="1" fill="#AB8946" fill-opacity="0.79"/>
<ellipse cx="39.7302" cy="111.853" rx="5.89872" ry="4.2988" transform="rotate(17.2266 39.7302 111.853)" fill="#FFDF3A"/>
<ellipse cx="39.8498" cy="112.078" rx="4.15302" ry="2.98169" transform="rotate(17.2266 39.8498 112.078)" fill="#FFB629" fill-opacity="0.59"/>
<ellipse cx="40.0359" cy="112.486" rx="2.62374" ry="1.78912" transform="rotate(17.2266 40.0359 112.486)" fill="#FF6929" fill-opacity="0.42"/>
<circle cx="101.5" cy="93.5" r="4.5" fill="#FFDF3A"/>
<ellipse cx="102.364" cy="93.5399" rx="3" ry="3.5" transform="rotate(30.6109 102.364 93.5399)" fill="#FFC730"/>
<circle cx="102" cy="94" r="2" fill="#FF9F2D"/>
<ellipse cx="54.5" cy="13" rx="5.5" ry="3" fill="#FFC730"/>
<ellipse cx="54.5" cy="13" rx="5.5" ry="3" fill="#FFC730"/>
<ellipse cx="54.5" cy="13" rx="5.5" ry="3" fill="#FFC730"/>
<ellipse cx="55" cy="13" rx="4" ry="2" fill="#FFC730"/>
<ellipse cx="55" cy="13" rx="4" ry="2" fill="#FFC730"/>
<ellipse cx="55" cy="13" rx="4" ry="2" fill="#FF9F2D"/>
<circle cx="23.5" cy="60.5" r="2.5" fill="#FFD134"/>
<circle cx="26.5" cy="60.5" r="1.5" fill="#FFD134"/>
<circle cx="93.5" cy="47.5" r="1.5" fill="#FFD134"/>
<circle cx="47" cy="30" r="2" fill="#FFD134"/>
<circle cx="51" cy="31" r="1" fill="#FFD134"/>
<circle cx="49.5" cy="27.5" r="0.5" fill="#FFD134"/>
<circle cx="48" cy="53" r="1" fill="#FFD134"/>
<circle cx="86.5" cy="81.5" r="1.5" fill="#FFD134"/>
<circle cx="88.5" cy="82.5" r="0.5" fill="#FFD134"/>
<circle cx="34.5" cy="89.5" r="2.5" fill="#FFD134"/>
<circle cx="40" cy="91" r="1" fill="#FFD134"/>
</svg>
